<svg width="1082" height="1545" viewBox="0 0 1082 1545" fill="none" xmlns="http://www.w3.org/2000/svg">
<path d="M541 733.875C489.756 733.875 440.612 713.528 404.377 677.31C368.142 641.092 347.786 591.97 347.786 540.75C347.786 489.53 368.142 440.408 404.377 404.19C440.612 367.972 489.756 347.625 541 347.625C592.244 347.625 641.388 367.972 677.623 404.19C713.858 440.408 734.214 489.53 734.214 540.75C734.214 566.112 729.217 591.225 719.507 614.656C709.797 638.087 695.565 659.377 677.623 677.31C659.682 695.243 638.382 709.469 614.94 719.174C591.498 728.88 566.373 733.875 541 733.875ZM541 0C397.518 0 259.912 56.9717 158.455 158.382C56.998 259.792 0 397.334 0 540.75C0 946.313 541 1545 541 1545C541 1545 1082 946.313 1082 540.75C1082 397.334 1025 259.792 923.545 158.382C822.088 56.9717 684.482 0 541 0Z" fill="#FF0000"/>
</svg>
